<?xml version="1.0" encoding="UTF-8"?>
<svg width="80px" height="77px" viewBox="0 0 80 77" version="1.1" xmlns="http://www.w3.org/2000/svg" xmlns:xlink="http://www.w3.org/1999/xlink">
    <title>icon/eat/3</title>
    <defs>
        <path d="M77.6491976,48.8278657 C77.8831807,48.8278657 78.105456,48.9302287 78.257545,49.1080404 C78.3857136,49.2567856 78.453846,49.4462917 78.4515571,49.6399849 L78.4416501,49.7564107 L78.3375907,50.364758 C76.6406217,66.4379357 61.9762484,76.0434204 39.1151949,76.0434204 C15.0374466,76.0434204 1.87793258,67.1823608 0.00486306738,49.7163878 C-0.0202732197,49.4893013 0.0528272863,49.2622962 0.205752424,49.0925493 C0.333190038,48.9510935 0.505938906,48.8606364 0.692197913,48.8352075 L0.805320124,48.8278657 L77.6491976,48.8278657 Z M76.7206674,50.4287946 L1.7098366,50.4287946 C3.8310478,66.582018 16.0780408,74.4425063 39.1151949,74.4425063 C60.9676725,74.4425063 74.9996847,65.4693827 76.7206674,50.4287946 Z M51.2341147,40.8233099 C53.8149074,40.8233099 55.9202599,42.8589113 56.0321776,45.4121193 L56.0368571,45.6260522 L54.4359429,45.6260522 C54.4359429,43.8577313 53.0024356,42.424224 51.2341147,42.424224 C49.5267704,42.424224 48.1315472,43.7605733 48.037355,45.4443619 L48.0322865,45.6260522 L46.4313724,45.6260522 C46.4313724,42.9735709 48.5816334,40.8233099 51.2341147,40.8233099 Z M69.2443985,28.8164541 C73.8862409,28.8164541 77.6491976,32.5794108 77.6491976,37.2212531 C77.6491976,41.8630955 73.8862409,45.6260522 69.2443985,45.6260522 C64.6025561,45.6260522 60.8395994,41.8630955 60.8395994,37.2212531 C60.8440122,32.5812398 64.6043852,28.8208668 69.2443985,28.8164541 Z M48.432515,1.60091411 C50.7479812,1.67406775 52.6411002,3.47080983 52.8350288,5.77929995 C54.9162172,3.38593335 57.0934604,2.08919292 59.2546944,1.91309237 C60.9077125,1.772495 62.5450964,2.3231197 63.7772768,3.43396077 C65.4689094,5.38173961 66.1359569,7.35620035 65.7784194,9.357343 C65.2839174,11.3940638 64.1057106,13.1995174 62.4405135,14.4722636 C64.3823854,14.7298282 65.7865485,16.4569489 65.6423417,18.4105123 C65.7193289,19.4937573 65.3224503,20.5571022 64.5545483,21.3250042 C63.8378399,22.0417127 62.8637677,22.4352186 61.8563585,22.4219073 L61.6400565,22.4127976 L60.4073526,22.4127976 C61.6688302,23.8231647 61.9846177,25.8427852 61.213874,27.57091 C60.4739601,29.2299099 58.8651011,30.3234018 57.0634728,30.4116098 L56.8373141,30.4173682 L54.8041532,30.4173682 C56.0656309,31.8277353 56.3814183,33.8473557 55.6106746,35.5754806 C54.8707607,37.2344804 53.2619017,38.3279724 51.4602734,38.4161804 L51.2341147,38.4219387 L29.4776919,38.4219387 L22.169519,45.425938 L21.0648882,44.2732798 L28.0208601,37.6214817 L28.0208601,18.4105123 C28.0246839,16.5183055 29.1391934,14.8046961 30.8673182,14.0339524 C32.5234379,13.295323 34.4472679,13.5545669 35.8460267,14.6877248 L36.0254306,14.8404738 L36.0254306,12.8073129 C36.0292545,10.9151061 37.1437639,9.20149669 38.8718888,8.43075301 C40.5280084,7.69212364 42.4518384,7.95136749 43.8505973,9.08452539 L44.0300012,9.23727444 L44.0300012,6.40365646 C43.9259997,3.86407372 45.8934891,1.7177217 48.432515,1.60091411 Z M40.0277159,41.623767 L40.0277159,44.8255952 L36.8258877,44.8255952 L36.8258877,41.623767 L40.0277159,41.623767 Z M69.2443985,30.4173682 C65.4885451,30.421779 62.4449244,33.4653998 62.4405135,37.2212531 C62.4405135,40.9789351 65.4867166,44.0251381 69.2443985,44.0251381 C73.0020804,44.0251381 76.0482835,40.9789351 76.0482835,37.2212531 C76.0482835,33.4635712 73.0020804,30.4173682 69.2443985,30.4173682 Z M11.2112619,26.4150829 C14.004857,26.4150829 16.3261825,28.184093 16.7424201,30.4814047 C19.2002141,30.8859312 20.9408486,33.102341 20.7512423,35.5859759 C20.5672126,37.9965626 18.624102,39.8823019 16.2326112,40.0155969 L16.0140042,40.0228528 L14.4130901,40.0228528 L14.4130901,43.2246811 C14.4130901,43.6327551 14.1077276,43.9695079 13.7130407,44.0189014 L13.612633,44.0251381 L8.80989069,44.0251381 C8.40181664,44.0251381 8.06506382,43.7197756 8.01567033,43.3250887 L8.00943364,43.2246811 L8.00943364,40.0228528 L6.40851952,40.0228528 C3.75603817,40.0228528 1.60577718,37.8725919 1.60577718,35.2201105 C1.60995735,32.8521104 3.33949301,30.8405483 5.6801036,30.4814047 C6.09634127,28.184093 8.41766674,26.4150829 11.2112619,26.4150829 Z M12.812176,40.0228528 L9.61034775,40.0228528 L9.61034775,42.424224 L12.812176,42.424224 L12.812176,40.0228528 Z M69.2443985,33.6191964 C71.2337595,33.6191964 72.8464553,35.2318921 72.8464553,37.2212531 C72.8464553,39.2106142 71.2337595,40.8233099 69.2443985,40.8233099 C67.2568637,40.8189078 65.6467438,39.2087879 65.6423417,37.2212531 C65.6423417,35.2318921 67.2550375,33.6191964 69.2443985,33.6191964 Z M69.2443985,35.2201105 C68.1391979,35.2201105 67.2432559,36.1160526 67.2432559,37.2212531 C67.2432559,38.3264537 68.1391979,39.2223958 69.2443985,39.2223958 C70.3495991,39.2223958 71.2455411,38.3264537 71.2455411,37.2212531 C71.2455411,36.1160526 70.3495991,35.2201105 69.2443985,35.2201105 Z M11.2112619,28.015997 C9.00200039,28.015997 7.20897658,29.4488151 7.20897658,31.2178252 C7.20897658,31.4301196 7.12464295,31.633719 6.97452814,31.7838338 C6.82441332,31.9339487 6.62081393,32.0182823 6.40851952,32.0182823 C4.64019862,32.0182823 3.2066913,33.4517896 3.2066913,35.2201105 C3.2066913,36.9274548 4.54304057,38.322678 6.22682916,38.4168702 L6.40851952,38.4219387 L16.0140042,38.4219387 C17.7823251,38.4219387 19.2158324,36.9884314 19.2158324,35.2201105 C19.2158324,33.4517896 17.7823251,32.0182823 16.0140042,32.0182823 C15.571924,32.0182823 15.2135471,31.6599054 15.2135471,31.2178252 C15.2135471,29.4488151 13.4205233,28.015997 11.2112619,28.015997 Z M48.432515,3.20182823 C46.8383219,3.31726755 45.6198558,4.64885393 45.6252378,6.22730621 L45.6309153,6.40365646 L45.6309153,12.8073129 L44.0300012,12.8073129 C44.0300012,11.038992 42.5964939,9.60548468 40.828173,9.60548468 C39.1208287,9.60548468 37.7256054,10.941834 37.6314133,12.6256226 L37.6263447,12.8073129 L37.6263447,19.2109694 L36.0254306,19.2109694 L36.0254306,18.4105123 C36.0254306,16.6421914 34.5919233,15.2086841 32.8236024,15.2086841 C31.1162581,15.2086841 29.7210349,16.5450334 29.6268427,18.228822 L29.6217742,18.4105123 L29.6217742,36.068595 L33.6240595,32.2424103 L33.6240595,24.0137117 L35.2249736,24.0137117 L35.2249736,30.7135373 L41.62863,24.5980454 L41.62863,17.6100553 L43.2295441,17.6100553 L43.2295441,23.0691724 L49.6332006,16.9456759 L49.6332006,11.2063988 L51.2341147,11.2063988 L51.2341147,15.4328121 L57.0854558,9.82961266 L58.1900865,10.9822708 L52.0906038,16.8095982 L56.8373141,16.8095982 L56.8373141,18.4105123 L50.4336577,18.4105123 L44.5583029,24.0137117 L50.4336577,24.0137117 L50.4336577,25.6146258 L42.877343,25.6146258 L36.2335495,31.9622503 L43.2295441,31.9622503 L43.2295441,33.5631644 L34.5605942,33.5631644 L31.1506472,36.8210246 L51.2341147,36.8210246 C53.0024356,36.8210246 54.4359429,35.3875173 54.4359429,33.6191964 C54.4359429,31.9118521 53.0995937,30.5166289 51.4158051,30.4224367 L51.2341147,30.4173682 L50.4336577,30.4173682 L50.4336577,28.8164541 L56.8373141,28.8164541 C58.605635,28.8164541 60.0391423,27.3829467 60.0391423,25.6146258 C60.0391423,23.9072815 58.7027931,22.5120583 57.0190045,22.4178661 L56.8373141,22.4127976 L56.8373141,20.8118835 L61.6400565,20.8118835 C62.2963557,20.8837734 62.949824,20.6539788 63.4166735,20.1871293 C63.883523,19.7202798 64.1133176,19.0668116 64.0414276,18.4105123 C64.1133176,17.754213 63.883523,17.1007448 63.4166735,16.6338953 C62.9922648,16.2094867 62.4136258,15.9809912 61.8188389,15.996966 L61.6400565,16.0091411 L59.9345798,16.009787 C59.5901233,15.989442 59.2920431,15.7481188 59.2060149,15.4057981 C59.1113838,15.0292453 59.3006259,14.6390782 59.654923,14.4802682 C59.6949458,14.4562544 63.6732174,12.246993 64.2415419,9.04516474 C64.5056927,7.54831005 63.9693865,6.01943707 62.6406278,4.50657323 C61.7350853,3.74427376 60.5611373,3.37795584 59.3827676,3.48999277 C57.2295381,3.65008418 54.9082126,5.38707599 52.682942,8.45282652 C52.4814604,8.7325934 52.12348,8.85192019 51.7944347,8.74899563 C51.5039207,8.65772984 51.2936584,8.41112618 51.2447384,8.11691918 L51.2341147,8.00457057 L51.1780827,5.75528624 C50.998694,4.35326194 49.8438486,3.27922206 48.432515,3.20182823 Z M6.40851952,19.6111979 L6.40851952,22.8130261 L3.2066913,22.8130261 L3.2066913,19.6111979 L6.40851952,19.6111979 Z M4.80760541,14.408227 L4.80760541,18.4105123 L0.805320124,18.4105123 L0.805320124,14.408227 L4.80760541,14.408227 Z M32.0231453,-1.70974346e-14 L32.0231453,3.20182823 L28.8213171,3.20182823 L28.8213171,-1.70974346e-14 L32.0231453,-1.70974346e-14 Z" id="path-1"></path>
    </defs>
    <g id="✅--Versiones" stroke="none" stroke-width="1" fill="none" fill-rule="evenodd" opacity="0.7">
        <g id="home" transform="translate(-1297.000000, -1418.000000)">
            <g id="icon/eat/3" transform="translate(1297.779750, 1418.814034)">
                <mask id="mask-2" fill="white">
                    <use xlink:href="#path-1"></use>
                </mask>
                <use id="Mask" fill="#727272" fill-rule="nonzero" xlink:href="#path-1"></use>
            </g>
        </g>
    </g>
</svg>