<?xml version="1.0" encoding="UTF-8"?>
<svg width="99px" height="99px" viewBox="0 0 99 99" version="1.1" xmlns="http://www.w3.org/2000/svg" xmlns:xlink="http://www.w3.org/1999/xlink">
    <title>come</title>
    <defs>
        <path d="M36.3907077,0.000970692689 L36.5006463,0.0148276841 C36.793649,0.0740671391 37.0226465,0.30243362 37.0820497,0.594628972 C37.1340274,0.850299905 37.0473266,1.11139223 36.8595486,1.28546063 L36.7729935,1.35446385 L28.5731492,9.56139492 C28.5299442,9.61166196 27.3578321,10.8780669 28.1184843,13.4614876 L28.2011055,13.7242234 L28.3424821,14.1471846 L21.98,20.4979707 L23.148,21.6629707 L29.7264849,15.1044126 L30.2399052,15.6238386 C31.7839996,17.1852647 34.1397164,15.9068621 34.6610137,15.5911383 L34.7044303,15.5644756 L42.8447476,7.446589 C43.138934,7.25209379 43.5296626,7.29047297 43.780145,7.53846809 C44.002796,7.75890819 44.0601713,8.09104773 43.9346903,8.36916309 L43.8790292,8.47060029 L35.5973353,16.7368943 C34.4451998,17.5052619 31.9551005,18.4543127 29.9680864,17.243682 L29.7711301,17.1153333 L24.179,22.6919707 L37.7998343,36.2747329 C37.8754173,36.305762 37.9457045,36.3483188 38.0081788,36.4008793 C39.3317081,37.7882614 39.7214047,39.8183806 39.0052561,41.5951394 C38.454736,42.997106 37.126822,43.9339962 35.6311351,43.9963029 L35.4261952,43.9993399 L35.3666682,43.9993399 C34.3558724,44.0177288 33.3791647,43.6512975 32.6327893,42.9798327 L32.4647269,42.8195008 L24.0937425,34.4270604 C23.7563134,34.1003676 23.5013175,33.6985842 23.3496549,33.2546417 C23.0659386,32.5148405 22.9887899,31.7121407 23.1264287,30.9320653 C23.2086908,30.6441227 23.1590254,30.3369718 22.9952219,30.0910768 L22.9180842,29.9896781 L21.884,28.9579707 L7.8503122,42.225871 C6.68860512,43.384377 4.99538015,43.8368251 3.40845876,43.4127825 C1.82153737,42.9887399 0.582010667,41.7526287 0.156796362,40.1700801 C-0.248169643,38.6628909 0.14406396,37.059547 1.18586409,35.9095042 L1.3469874,35.7404662 L12.442,24.6739707 L4.0331433,15.6460997 C3.14993466,14.698189 2.45776548,13.5897392 1.99434353,12.3811362 C0.766599151,9.14585411 -0.156069356,4.86429966 2.42591429,2.83853819 C2.97781777,2.40970552 3.74783501,2.42543203 4.28006237,2.85816332 L4.3903053,2.95726414 L20.92,19.4409707 L26.6980487,13.6797012 C25.7880735,10.4315426 27.3805302,8.67231757 27.5430257,8.49701186 L27.5537494,8.48544103 L35.7387119,0.323032192 C35.8653332,0.138493661 36.0657966,0.0240756973 36.281725,0.00339201878 L36.3907077,0.000970692689 Z M3.39322805,3.9886958 L3.35602367,3.9886958 C1.26513778,5.60633682 2.65658141,10.0437191 3.35602367,11.8765509 C3.71016994,12.7908967 4.21863436,13.6370247 4.85854567,14.3786358 L5.10462931,14.6517699 L17.0546746,27.5186944 C17.4423131,27.9378352 18.0601057,28.0373192 18.5556501,27.7768447 L18.6767854,27.7042037 L19.5622495,27.1179943 C20.3727797,26.5786228 21.436932,26.6488133 22.1675522,27.2696939 L22.3004916,27.3925481 L23.9151614,28.9953483 C24.4995436,29.60764 24.724729,30.4778289 24.5104315,31.2956636 C24.4420344,31.7974472 24.5035107,32.3083381 24.6890125,32.7797379 C24.752213,32.9658187 24.8496603,33.1380273 24.975923,33.2877179 L25.075938,33.3956287 L33.4766859,41.7880691 C33.9857541,42.2901565 34.6810271,42.5588996 35.3964317,42.5301063 C36.3808445,42.5576439 37.2755634,41.9628082 37.6286942,41.0460319 C38.0883155,39.8994 37.8924523,38.6008278 37.12932,37.6423464 L36.9887789,37.4768332 L36.9441337,37.4768332 L3.39322805,3.9886958 Z M13.439,25.7429707 L2.35150554,36.7422164 C1.55399495,37.5375294 1.24253161,38.6967234 1.53444075,39.7831412 C1.82634988,40.869559 2.67728355,41.7181479 3.76670327,42.0092527 C4.78803425,42.2821635 5.87350543,42.0262276 6.66232822,41.3378518 L6.81603057,41.1944394 L20.5649623,28.2215301 C20.5436609,28.2285859 20.5225832,28.236639 20.5017972,28.2456963 L20.4030684,28.2978334 L19.4803999,28.8840428 C18.4240103,29.5947039 17.0219309,29.4689892 16.1100347,28.6044443 L15.9831886,28.4759223 L13.439,25.7429707 Z M39.6540894,3.33476404 L39.7608596,3.35077872 C40.0448519,3.41461643 40.2654295,3.63775132 40.3253803,3.92184408 C40.3778372,4.17042525 40.2988828,4.42572309 40.1214926,4.60127027 L40.0395377,4.67136999 L31.8545751,12.8337788 C31.7159809,12.9708659 31.5289177,13.0481499 31.3337139,13.0489696 C31.1410933,13.0462215 30.9570484,12.9690825 30.8202935,12.8337788 C30.5580205,12.5706677 30.5341775,12.1604445 30.7487645,11.8705857 L30.8202935,11.7875064 L39.0052561,3.62509759 C39.1375343,3.45186951 39.3366765,3.34827047 39.5477894,3.33422924 L39.6540894,3.33476404 Z" id="path-1"></path>
    </defs>
    <g id="Main" stroke="none" stroke-width="1" fill="none" fill-rule="evenodd">
        <g id="Cómo-funciona---Mobile" transform="translate(-156.000000, -1283.000000)">
            <g id="come" transform="translate(156.000000, 1283.000000)">
                <circle id="Oval" fill="#F6F9FC" cx="49.5" cy="49.5" r="49.5"></circle>
                <g id="icon/eat/1" transform="translate(28.000000, 27.000000)">
                    <mask id="mask-2" fill="white">
                        <use xlink:href="#path-1"></use>
                    </mask>
                    <use id="Mask" fill="#576B7A" fill-rule="nonzero" xlink:href="#path-1"></use>
                </g>
            </g>
        </g>
    </g>
</svg>