<?xml version="1.0" encoding="UTF-8"?>
<svg width="76px" height="77px" viewBox="0 0 76 77" version="1.1" xmlns="http://www.w3.org/2000/svg" xmlns:xlink="http://www.w3.org/1999/xlink">
    <title>Mask 2</title>
    <defs>
        <path d="M37.8604082,0.000996846624 C39.1490281,-0.0172709976 40.4289559,0.215694798 41.6293878,0.687006927 C44.8863443,1.87853483 47.4209858,4.5039587 48.5081633,7.81215708 C48.717551,7.78097481 48.9269388,7.71861026 49.1440816,7.71861026 C51.8696745,7.41715549 54.5998364,8.24470011 56.7053061,10.0105076 C58.9001438,8.5079552 61.7024155,8.22428199 64.1512162,9.25676009 C66.600017,10.2892382 68.3624924,12.4975275 68.8342857,15.1244009 C69.2202142,17.2312769 68.7265942,19.4049525 67.4693878,21.1347847 C71.0948044,21.9002418 73.6863595,25.1207697 73.6734694,28.8446025 C73.6734694,31.6821897 71.9130612,33.7090376 70.2146939,35.3071293 C69.0997891,36.2594235 67.8229766,37.001515 66.4457143,37.4976842 L66.4457143,37.4976842 L73.8518367,37.4976842 C75.0364682,37.5019601 75.9957463,38.4662439 76,39.6570569 L76,39.6570569 L76,73.8484229 C75.9957279,75.037966 75.0352126,76 73.8518367,76 L73.8518367,76 L2.14816327,76 C0.964787422,76 0.00427211493,75.037966 0,73.8484229 L0,73.8484229 L0,39.6570569 C0.0169087612,38.4753868 0.972512874,37.5251997 2.14816327,37.5210709 L2.14816327,37.5210709 L3.16408163,37.5210709 C1.85346939,34.6756882 -1.11673469,27.1373729 0.891836735,21.1503758 C1.83691494,18.3389045 3.93435292,16.0687751 6.65387755,14.9139205 C7.35640166,14.5976586 8.08241719,14.3370143 8.82530612,14.1343636 L8.82530612,14.1343636 L8.82530612,11.6865549 C7.33632653,8.34225578 2.21020408,4.40549339 2.16367347,4.35871997 C1.8210315,4.10039754 1.75158995,3.61177021 2.00857143,3.2673403 C2.1332693,3.10086946 2.31908056,2.99151439 2.52452814,2.96368551 C2.72997572,2.93585662 2.9379551,2.9918708 3.10204082,3.11922449 C5.2274094,4.75099089 7.15828498,6.62393025 8.85632653,8.70085196 L8.85632653,8.70085196 L8.85632653,1.47435941 C8.83895636,0.723808389 9.42813613,0.100199578 10.1746939,0.0789525376 L10.1746939,0.0789525376 L12.9510204,0.0789525376 C13.6987758,0.10020054 14.2901925,0.722516327 14.2771429,1.47435941 L14.2771429,1.47435941 L14.2771429,7.86672607 C15.5693442,6.18710863 17.4712995,5.09100152 19.5661224,4.81865855 C19.991969,4.78732826 20.3628986,5.10792255 20.3959184,5.53585091 C20.4320731,5.95852468 20.1253532,6.33266631 19.7057143,6.37777237 C19.4730612,6.39336351 14.6959184,6.85330209 14.2771429,12.4739074 L14.2771429,12.4739074 L14.2771429,13.6822206 C14.9305418,13.7587731 15.5782062,13.8785652 16.2159184,14.0408168 C17.2706122,11.865853 20.6906122,6.34659009 28.2130612,6.65061729 C28.4346109,6.65144926 28.6368487,6.52401183 28.7326531,6.32320339 C29.6710204,4.46785794 32.4318367,0.14131709 37.8604082,0.000996846624 Z M73.8518367,39.056798 L2.14816327,39.056798 C1.82011715,39.0609993 1.55519985,39.327299 1.55102041,39.6570569 L1.55102041,39.6570569 L1.55102041,49.9394125 L51.4938776,49.9394125 C51.92218,49.9394125 52.2693878,50.288432 52.2693878,50.7189694 C52.2693878,51.1495068 51.92218,51.4985263 51.4938776,51.4985263 L51.4938776,51.4985263 L1.55102041,51.4985263 L1.55102041,62.6072123 L17.1465306,62.6072123 C17.5748331,62.6072123 17.9220408,62.9562318 17.9220408,63.3867692 C17.9220408,63.8173066 17.5748331,64.1663261 17.1465306,64.1663261 L17.1465306,64.1663261 L1.55102041,64.1663261 L1.55102041,73.8484229 C1.55526441,74.1768884 1.82137534,74.4408862 2.14816327,74.4408862 L2.14816327,74.4408862 L73.8518367,74.4408862 C74.1786247,74.4408862 74.4447356,74.1768884 74.4489796,73.8484229 L74.4489796,73.8484229 L74.4489796,64.1663261 L24.5293878,64.1663261 C24.1010853,64.1663261 23.7538776,63.8173066 23.7538776,63.3867692 C23.7538776,62.9562318 24.1010853,62.6072123 24.5293878,62.6072123 L24.5293878,62.6072123 L74.4489796,62.6072123 L74.4489796,51.4985263 L59.8228571,51.4985263 C59.3945547,51.4985263 59.0473469,51.1495068 59.0473469,50.7189694 C59.0473469,50.288432 59.3945547,49.9394125 59.8228571,49.9394125 L59.8228571,49.9394125 L74.4489796,49.9394125 L74.4489796,39.6570569 C74.4448002,39.327299 74.1798829,39.0609993 73.8518367,39.056798 L73.8518367,39.056798 Z M37.8991837,1.56011067 C33.3469388,1.68483977 30.9273469,5.45789522 30.1130612,7.01700904 C29.7483601,7.7669893 28.9811405,8.23338111 28.1510204,8.20973111 C23.7239754,7.99972435 19.6047495,10.4835419 17.704898,14.5085509 C18.2511936,14.7332326 18.7822624,14.9936424 19.2946939,15.2881079 C22.4897959,17.1512489 25.8632653,20.8385531 24.1804082,28.2443437 L24.1804082,28.2443437 L24.2502041,28.2443437 C26.067657,23.2752381 31.099646,20.2654421 36.3112269,21.0302543 C41.5228079,21.7950666 45.4887787,26.1253352 45.8171429,31.4093447 C47.3032116,32.3977956 48.1972759,34.0693742 48.1979592,35.8606147 C48.2018207,36.430031 48.1127473,36.9962288 47.9342857,37.5366621 L47.9342857,37.5366621 L59.0938776,37.5366621 C66.1355102,37.0845191 69.1755102,34.2235452 69.1755102,34.2235452 C70.7110204,32.7423871 72.1224693,31.1209087 72.1224693,28.8446025 C72.1302524,25.7420265 69.8893422,23.0957963 66.8412245,22.6081472 C66.3720598,22.5341049 65.9781005,22.2135207 65.8083685,21.7676614 C65.6386365,21.321802 65.7190472,20.8187428 66.0191837,20.4487746 C67.1499633,19.0261405 67.6111387,17.1803449 67.2832653,15.3894502 C66.8999062,13.2754336 65.4745817,11.5018892 63.4991027,10.6807819 C61.5236238,9.85967464 59.2684888,10.1034372 57.5118367,11.3279587 C56.9773356,11.7093577 56.2542131,11.6805381 55.7514286,11.2577986 C53.3080509,9.22156743 49.9506928,8.69605291 47.0070857,9.88907983 C44.0634786,11.0821067 42.007664,13.8015489 41.6526531,16.9719508 C41.5752705,17.7323695 41.5908972,18.4994557 41.6991837,19.2560525 C41.7303125,19.4607775 41.6791207,19.6695395 41.5569054,19.8362686 C41.4346901,20.0029978 41.2514976,20.1139885 41.0477551,20.1447474 C40.8440928,20.1760386 40.6364145,20.1245797 40.4705509,20.0017267 C40.3046873,19.8788737 40.1942727,19.6947253 40.1636735,19.4899196 C39.410768,14.5561232 42.2970624,9.79290017 47.0036735,8.20193554 C46.0562177,5.37529901 43.8730726,3.14054799 41.0787755,2.13698278 C40.0674238,1.73475115 38.9866081,1.53865916 37.8991837,1.56011067 Z M32.1613129,30.0160127 C29.1923635,28.6216942 25.7207726,28.8472647 22.955102,30.6141967 L22.955102,30.6141967 L22.6928434,30.7887659 C20.4488343,32.3362652 18.9611033,34.7747105 18.6122449,37.4976842 L18.6122449,37.4976842 L37.6122449,37.4976842 C37.1857666,34.2316117 35.1302623,31.4103313 32.1613129,30.0160127 Z M45.2238955,32.8851375 C43.8466708,31.7819223 41.8937373,31.7819223 40.5165127,32.8851375 C39.139288,33.9883527 38.7033474,35.9019419 39.4657143,37.4976842 L39.4657143,37.4976842 L46.2746939,37.4976842 C47.0370608,35.9019419 46.6011202,33.9883527 45.2238955,32.8851375 Z M18.5346939,16.6445369 C15.0625186,14.7608959 10.9106166,14.6309232 7.32857143,16.2937363 C5.00375986,17.2712451 3.20780742,19.2043042 2.39632653,21.6025188 L2.39632653,21.6025188 L2.39632653,21.61811 C0.395510204,27.5583336 4.00163265,35.6111565 4.91673469,37.4976842 L4.91673469,37.4976842 L17.0612245,37.4976842 C17.4150084,34.2135567 19.1985522,31.2559242 21.9314286,29.4214746 C22.1667263,29.1572482 22.3674051,28.8638286 22.5285714,28.5483709 L22.5285714,28.5483709 L22.6146152,28.2006662 C23.905856,22.7865284 22.5288946,18.9344853 18.5346939,16.6445369 Z M36.2610624,22.5679928 C32.1363417,21.892401 28.051595,23.9809692 26.1657143,27.7298361 C26.805709,27.6146417 27.4543292,27.5546573 28.1044898,27.550538 C32.2932408,27.5334718 36.1361984,29.8838215 38.0465306,33.6310819 C38.9167864,31.7285335 40.8103114,30.5103539 42.8934694,30.5128543 C43.3357938,30.5141306 43.7761738,30.5717573 44.2040816,30.6843568 C43.5996615,26.5276012 40.3857831,23.2435846 36.2610624,22.5679928 Z M12.7338776,1.63806636 L10.4073469,1.63806636 L10.4073469,13.7601763 C11.177025,13.6403677 11.9550463,13.5830151 12.7338776,13.5886738 L12.7338776,13.5886738 L12.7338776,1.63806636 Z" id="path-1"></path>
    </defs>
    <g id="✅--Versiones" stroke="none" stroke-width="1" fill="none" fill-rule="evenodd" opacity="0.699999988">
        <g id="home" transform="translate(-922.000000, -1413.000000)">
            <g id="Group-21" transform="translate(820.000000, 1413.814034)">
                <g id="Mask-2" transform="translate(102.000000, 0.000000)">
                    <mask id="mask-2" fill="white">
                        <use xlink:href="#path-1"></use>
                    </mask>
                    <use id="Mask" fill="#727272" fill-rule="nonzero" xlink:href="#path-1"></use>
                </g>
            </g>
        </g>
    </g>
</svg>