<?xml version="1.0" encoding="UTF-8"?>
<svg width="99px" height="99px" viewBox="0 0 99 99" version="1.1" xmlns="http://www.w3.org/2000/svg" xmlns:xlink="http://www.w3.org/1999/xlink">
    <title>Group 4</title>
    <g id="Main" stroke="none" stroke-width="1" fill="none" fill-rule="evenodd">
        <g id="Cómo-funciona---Mobile" transform="translate(-156.000000, -1629.000000)">
            <g id="Group-4" transform="translate(156.000000, 1629.000000)">
                <circle id="Oval" fill="#F6F9FC" cx="49.5" cy="49.5" r="49.5"></circle>
                <g id="recycle" transform="translate(25.000000, 24.000000)" fill="#576B7A" fill-rule="nonzero">
                    <path d="M15.53118,15.8763083 C15.3330348,15.2602098 14.7617388,14.86318 14.1431683,14.9116911 L0.469241085,15.9395619 C0.259092368,15.9543513 0.0799982566,16.104833 0.0205070843,16.3166052 C-0.038984088,16.5283775 0.0337319173,16.7565726 0.2027026,16.8883657 L3.96441556,19.8191152 L2.10367519,23.6828551 C0.747584938,26.5118741 0.747584938,29.8463876 2.10367519,32.6754066 L6.20233303,41.1988274 L6.20233303,41.1988274 L8.58106329,45.6582052 C9.22353946,46.977332 10.5027508,47.8226594 11.9153089,47.8615385 L16.8839886,47.8615385 C17.1617341,47.8615385 17.3868914,47.6255418 17.3868914,47.3344252 L17.3868914,34.5519297 C17.3868914,34.2608131 17.1617341,34.0248164 16.8839886,34.0248164 L11.0654031,34.0248164 L15.1288578,26.7242984 L18.8050773,28.6377193 C18.9877073,28.7325517 19.206887,28.7024721 19.3600669,28.5615539 C19.5132469,28.4206358 19.5701341,28.1967474 19.5041122,27.9946412 L15.53118,15.8763083 Z M10.7485744,35.0790429 L16.3911438,35.0790429 L16.3911438,46.807312 L11.9253669,46.807312 C10.8780019,46.765092 9.9364713,46.1260615 9.47120125,45.1416342 L7.22825475,40.9247285 L10.5272971,35.0210604 C10.5953607,35.0592318 10.6713803,35.0791517 10.7485744,35.0790429 Z M15.16909,25.5646493 C14.9321054,25.4406319 14.6439686,25.5305427 14.5102873,25.7702234 L6.6800907,39.8388753 L3.01895829,32.1851913 C1.80632351,29.654569 1.80632351,26.6720659 3.01895829,24.1414436 L5.0305695,19.8823688 C5.13946276,19.6534614 5.07585028,19.3756494 4.87969866,19.2234772 L1.86228185,16.8778234 L14.2135747,15.9395619 C14.3782039,15.9263334 14.5300152,16.0331398 14.5806937,16.1978474 L18.1663907,27.0985487 L15.16909,25.5646493 Z" id="Shape"></path>
                    <path d="M11.1728495,7.23658195 L22.1507155,12.9402919 C22.2234877,12.9755774 22.3029693,12.9946839 22.3837482,12.9963104 C22.5733946,12.996707 22.7473787,12.8905879 22.8346158,12.7213101 L25.5600851,7.54213784 L29.9471787,14.4222379 L26.5986003,16.841222 C26.4419109,16.9593034 26.3669552,17.1575936 26.4060951,17.3504819 C26.4531875,17.5525262 26.6175222,17.7056384 26.8215012,17.7375193 L39.0861129,19.6115954 C39.1586376,19.6166477 39.2314232,19.6166477 39.3039478,19.6115954 C39.8430079,19.6120489 40.3324472,19.2953261 40.555232,18.8018723 L46.051764,6.16713635 C46.1360813,5.97207264 46.090932,5.74487614 45.938534,5.59734993 C45.786136,5.44982372 45.5585871,5.41303945 45.3678637,5.50509859 L41.0972863,7.54213784 L38.6352453,4.16065268 C36.8267182,1.69266288 33.9786944,0.211272529 30.9299688,0.152777944 L21.6897161,0 L21.6897161,0 L16.7453703,0.132407552 C15.3242278,0.114115426 14.0059531,0.875284529 13.3056052,2.11852083 L10.995542,6.54908121 C10.9332859,6.66830727 10.9205357,6.80746684 10.9600805,6.93611866 C10.991168,7.0594793 11.0670732,7.16666949 11.1728495,7.23658195 Z M30.8995732,1.17129757 C33.637347,1.21634924 36.1970444,2.54437787 37.8196309,4.76157926 L40.5248365,8.4893611 C40.6690838,8.68719476 40.9331239,8.75355231 41.1530116,8.64723164 L44.5775789,7.00741504 L39.6332331,18.3944645 C39.5647239,18.5443386 39.4050984,18.6297814 39.2431567,18.603261 L28.2044995,16.9379814 L30.9299688,14.9671459 C31.1590477,14.8066083 31.2156948,14.4899923 31.056617,14.2592748 L22.6167809,1.01851963 L30.8995732,1.17129757 Z M14.1820107,2.59213245 C14.7130476,1.67976676 15.6940834,1.12819608 16.7453703,1.15092718 L21.4060241,1.01851963 L24.9521737,6.62037758 C24.8914166,6.66475648 24.8412352,6.72216013 24.8052618,6.78843332 L22.1811111,11.8148277 L12.1100461,6.564359 L14.1820107,2.59213245 Z" id="Shape"></path>
                    <path d="M49.4774616,24.2241206 L46.7937708,19.8627341 C46.644914,19.6193016 46.3291667,19.5426036 46.0867215,19.690985 L35.3416362,26.3163371 C35.2237061,26.3897524 35.1400116,26.507914 35.1093937,26.6442218 C35.0783279,26.7774848 35.1005785,26.9177251 35.171325,27.0345606 L38.2678914,32.1141707 L29.9690935,32.3535786 L29.5975056,28.1587366 C29.5796533,27.9492071 29.4385113,27.7711025 29.2397874,27.7073383 C29.0410636,27.6435741 28.8238146,27.7066825 28.6891794,27.8672836 L20.6432678,37.6049378 C20.2287025,38.0964845 20.2009935,38.8101062 20.5761756,39.3328379 L28.7769155,50.7827786 C28.8743703,50.9172708 29.0297739,50.996596 29.194952,50.9961639 C29.241262,51.0012787 29.2879874,51.0012787 29.3342974,50.9961639 C29.5409304,50.9387655 29.6908794,50.7585502 29.7110463,50.5433708 L30.1548875,45.7396002 L34.4075053,45.3648749 C37.515532,45.0820008 40.3132327,43.3487654 41.9682882,40.6808082 L46.9279553,32.6918723 C46.9279553,32.6918723 46.9279553,32.6918723 46.9279553,32.6918723 C46.9279553,32.6918723 46.9279553,32.6918723 46.9279553,32.6918723 L49.3948865,28.3044632 C50.1709589,27.0651341 50.2027474,25.4943483 49.4774616,24.2241206 Z M41.0909277,40.1291292 C39.6029849,42.5052202 37.1007713,44.0450159 34.3249302,44.2927441 L29.6387931,44.703901 C29.3906889,44.7253331 29.1931399,44.9223607 29.1691472,45.1723077 L28.8336859,49.0080378 L21.4174094,38.7187047 C21.3127818,38.5901171 21.3127818,38.4049083 21.4174094,38.2763206 L28.6427309,29.4910934 L28.9472266,32.9156666 C28.9713298,33.1846693 29.195486,33.3903737 29.463321,33.3892778 L45.4983739,32.9625072 L41.0909277,40.1291292 Z M48.5072042,27.7683978 L46.1847794,31.9007855 L39.4239428,32.0829436 C39.4198422,32.0056074 39.3967904,31.9305033 39.3568506,31.8643538 L36.3222155,26.9356748 L46.1847794,20.8672062 L48.5897793,24.7705951 C49.1121296,25.7088654 49.0803988,26.8608162 48.5072042,27.7683978 L48.5072042,27.7683978 Z" id="Shape"></path>
                </g>
            </g>
        </g>
    </g>
</svg>