<?xml version="1.0" encoding="UTF-8"?>
<svg width="99px" height="99px" viewBox="0 0 99 99" version="1.1" xmlns="http://www.w3.org/2000/svg" xmlns:xlink="http://www.w3.org/1999/xlink">
    <title>recibe</title>
    <g id="Main" stroke="none" stroke-width="1" fill="none" fill-rule="evenodd">
        <g id="Cómo-funciona---Mobile" transform="translate(-156.000000, -889.000000)">
            <g id="recibe" transform="translate(156.000000, 889.000000)">
                <circle id="Oval" fill="#F6F9FC" cx="49.5" cy="49.5" r="49.5"></circle>
                <path d="M34.7829614,36.9794605 C36.453308,27.5064542 45.743504,21.2324479 55.5274455,22.9576208 C65.2021778,24.6635371 71.7651343,33.563946 70.2720965,42.948928 L70.2720965,42.948928 L70.142791,43.7199823 L69.9950495,43.6932398 L57.6680495,51.3762398 L68.0434409,57.3088203 C68.2202803,57.4099434 68.3547686,57.5568867 68.4404095,57.726112 L69.1184825,57.6143579 L66.8287464,71.0392504 C66.6050053,72.2396362 65.6710181,73.1851894 64.4675253,73.4297118 L64.4675253,73.4297118 L47.0788864,76.9626872 C46.3236013,77.116144 45.5378599,76.9763107 44.8830884,76.5719154 L44.8830884,76.5719154 L30.007099,67.3843132 C28.9692206,66.7433061 28.4231517,65.5432073 28.6243096,64.3453487 L28.6243096,64.3453487 L31.3562104,52.0799835 C31.3064047,51.8523475 31.3353694,51.6067063 31.4559051,51.3870694 C31.6013182,51.1221015 31.8592988,50.93816 32.157175,50.8870604 L32.157175,50.8870604 L44.0670495,48.8432398 L35.1110495,37.6752398 L34.6965663,37.4694316 Z M67.8330495,59.1332398 L67.7137059,59.1607563 L49.7860495,62.0272398 L46.6839777,76.0135571 C46.6853118,76.0134184 46.6866459,76.0132784 46.6879799,76.013137 L46.8775427,75.9839008 L58.0599488,73.7116451 C58.0571689,73.6985617 58.0553582,73.6854821 58.0545513,73.6724309 L58.0577929,73.6140924 L59.0080186,68.2250947 C59.0557273,67.9545255 59.5490948,67.8153603 60.1099858,67.9142605 C60.6308131,68.0060964 61.0267232,68.2709107 61.0424263,68.5249056 L61.0391846,68.5832441 L60.2110495,73.2742398 L64.2661815,72.4509253 C65.0150216,72.2987781 65.6073486,71.7395136 65.8042706,71.0149825 L65.840329,70.8572843 L67.8330495,59.1332398 Z M32.1330495,52.9002398 L29.6158284,64.5098077 C29.4817231,65.30838 29.845769,66.1084459 30.5376879,66.5357839 L30.5376879,66.5357839 L45.3620495,75.6912398 L48.3800495,61.8962398 L41.0670495,57.8472398 L39.843155,64.7933335 C39.7988541,65.0445764 39.5723128,65.2181395 39.3225066,65.2032715 L39.2645184,65.196445 C39.0120738,65.1519322 38.8373606,64.926121 38.8518877,64.6774565 L38.8586502,64.6197388 L40.1430495,57.3352398 L32.1330495,52.9002398 Z M44.7820495,49.7342398 L32.5380495,51.8342398 L41.3640495,56.5352398 L44.4564158,56.0031916 C44.7283255,55.9564008 44.9872135,56.1379717 45.0346584,56.4087415 C45.0787144,56.6601705 44.9249632,56.9001006 44.6850679,56.9705568 L44.628229,56.9837356 L42.7970495,57.2982398 L49.4609654,60.8462605 L67.1410495,57.9392398 L56.7090495,51.9742398 L49.4459185,56.5012464 L48.9740495,55.7172398 L48.8547587,55.746536 L48.5470495,54.4292398 L44.7820495,49.7342398 Z M53.6040495,50.1982398 L50.1430495,54.8212398 L50.1780495,54.8652398 L55.7110495,51.4032398 L53.6040495,50.1982398 Z M50.9437291,48.6777084 L48.1330495,49.1592398 L49.1690495,53.6202398 L49.5900495,54.1392398 L52.8350495,49.7592398 L50.9437291,48.6777084 Z M47.3500495,49.2932398 L45.8670495,49.5482398 L48.0320495,52.2182398 L47.3500495,49.2932398 Z M66.2465696,39.6983639 C64.5031648,38.9029948 62.6271761,38.9953628 61.6132924,39.8460676 L61.6132924,39.8460676 L60.9200495,40.4272398 L54.2050495,49.3952398 L56.6680495,50.8042398 L69.0928699,43.0317716 C68.9917217,41.8423719 67.9821512,40.5658219 66.4631451,39.8021519 Z M54.0231894,34.0073681 C50.3758055,33.3642359 46.9584037,34.6053498 45.7697031,36.8802245 L45.7697031,36.8802245 L45.4320495,37.5262398 L47.9070495,48.1842398 L50.7712349,47.6938819 C50.9534586,47.6626221 51.1400548,47.6829685 51.310435,47.751274 L51.4348579,47.8114385 L53.4320495,48.9532398 L60.7193992,39.1193497 C60.1700389,36.8064263 57.625147,34.7372928 54.3170312,34.0631974 Z M44.3004112,36.1979476 C43.4501901,35.4704302 42.0744025,35.0571235 40.5905353,35.1745125 C38.743743,35.3206125 37.2169056,36.2501732 36.7335633,37.4301773 L36.7335633,37.4301773 L36.5180495,38.0172398 L45.1460495,48.6582398 L47.1230495,48.3192398 Z M55.3546772,23.9374386 C46.2931051,22.3396389 37.6921247,27.9938448 35.8704716,36.621173 L35.8704716,36.621173 L35.8617097,36.6640378 L35.985265,36.6858239 L36.0423497,36.5870089 C36.8108453,35.307447 38.4423646,34.3919959 40.3414899,34.1978146 L40.3414899,34.1978146 L40.5097391,34.1825618 C42.4371878,34.0300811 44.2501718,34.6482942 45.2887583,35.767743 L45.2887583,35.767743 L45.3596105,35.6722892 C47.013997,33.5042884 50.4209562,32.4228295 54.0005456,32.9947135 L54.0005456,32.9947135 L54.1959577,33.0275503 C57.8468881,33.6713078 60.7674602,35.8850163 61.5943155,38.5354462 L61.5943155,38.5354462 L61.628005,38.6492981 C62.947264,37.9726601 64.7903312,37.9896106 66.5061454,38.7250324 L66.5061454,38.7250324 L66.6617598,38.7938689 C67.8436252,39.3330548 68.8034144,40.1477719 69.4057395,41.0710849 L69.4057395,41.0710849 L69.4595744,41.156679 L69.4706726,40.9401571 C69.8063948,32.8939077 63.9852703,25.5953786 55.6280882,23.987835 L55.6280882,23.987835 Z" id="box" fill="#576B7A" fill-rule="nonzero" transform="translate(49.533395, 49.847835) rotate(-20.000000) translate(-49.533395, -49.847835) "></path>
            </g>
        </g>
    </g>
</svg>