<?xml version="1.0" encoding="UTF-8"?>
<svg width="70px" height="70px" viewBox="0 0 70 70" version="1.1" xmlns="http://www.w3.org/2000/svg" xmlns:xlink="http://www.w3.org/1999/xlink">
    <title>time</title>
    <defs>
        <path d="M35,9.09494702e-13 C54.3216364,0.0200953219 69.9799047,15.6783636 70,35 C70,54.3299662 54.3299662,70 35,70 C15.6700338,70 0,54.3299662 0,35 C0,15.6700338 15.6700338,9.09494702e-13 35,9.09494702e-13 Z M35,1.45833333 C16.475449,1.45833333 1.45833333,16.475449 1.45833333,35 C1.45833333,53.524551 16.475449,68.5416667 35,68.5416667 C53.5095737,68.5055582 68.5055582,53.5095737 68.5416667,35 C68.5416667,16.475449 53.524551,1.45833333 35,1.45833333 Z M35,61.425 C35.4027076,61.425 35.7291667,61.751459 35.7291667,62.1541667 L35.7291667,62.1541667 L35.7291667,65.7270833 C35.7291667,66.129791 35.4027076,66.45625 35,66.45625 C34.5972924,66.45625 34.2708333,66.129791 34.2708333,65.7270833 L34.2708333,65.7270833 L34.2708333,62.1541667 C34.2708333,61.751459 34.5972924,61.425 35,61.425 Z M15.9569611,53.3311068 L16.0691672,53.3424885 C16.3689089,53.3964841 16.6035159,53.6310911 16.6575115,53.9308328 C16.7115072,54.2305745 16.5735157,54.5323016 16.3114583,54.6875 L16.3114583,54.6875 L13.7958333,57.225 C13.5132108,57.498185 13.0649142,57.498185 12.7822917,57.225 C12.5091067,56.9423775 12.5091067,56.4940809 12.7822917,56.2114583 L12.7822917,56.2114583 L15.3125,53.6885417 C15.4676984,53.4264843 15.7694255,53.2884928 16.0691672,53.3424885 Z M53.9308328,53.3424885 C54.2305745,53.2884928 54.5323016,53.4264843 54.6875,53.6885417 L54.6875,53.6885417 L57.225,56.2041667 C57.498185,56.4867892 57.498185,56.9350858 57.225,57.2177083 C56.9423775,57.4908933 56.4940809,57.4908933 56.2114583,57.2177083 L56.2114583,57.2177083 L53.6885417,54.6875 C53.4264843,54.5323016 53.2884928,54.2305745 53.3424885,53.9308328 C53.3964841,53.6310911 53.6310911,53.3964841 53.9308328,53.3424885 Z M35,16.4135417 C35.3691487,16.4135417 35.6742273,16.6878579 35.7225102,17.0437647 L35.7291667,17.1427083 L35.7291667,29.9979167 C35.7324302,30.0172242 35.7324302,30.0369425 35.7291667,30.05625 C38.2705734,30.4327988 40.1118112,32.6758448 39.9858916,35.2419082 C39.8599721,37.8079716 37.8079716,39.8599721 35.2419082,39.9858916 C32.7513172,40.1081077 30.5650221,38.3771798 30.0942795,35.9515592 L30.05625,35.7291667 L21.4302083,35.7291667 C21.0275007,35.7291667 20.7010417,35.4027076 20.7010417,35 C20.7010417,34.6308513 20.9753579,34.3257727 21.3312647,34.2774898 L21.4302083,34.2708333 L30.05625,34.2708333 C30.3816037,32.0921011 32.0921011,30.3816037 34.2708333,30.05625 L34.2683857,30.0270833 L34.2683857,30.0270833 L34.2708333,29.9979167 L34.2708333,17.1427083 C34.2708333,16.7400007 34.5972924,16.4135417 35,16.4135417 Z M35,31.4270833 C33.0267326,31.4270833 31.4270833,33.0267326 31.4270833,35 C31.4270833,36.9732674 33.0267326,38.5729167 35,38.5729167 C36.9716034,38.5689053 38.5689053,36.9716034 38.5729167,35 C38.5729167,33.0267326 36.9732674,31.4270833 35,31.4270833 Z M65.7125,34.2708333 C66.1152076,34.2708333 66.4416667,34.5972924 66.4416667,35 C66.4416667,35.4027076 66.1152076,35.7291667 65.7125,35.7291667 L65.7125,35.7291667 L62.1395833,35.7291667 C61.7368757,35.7291667 61.4104167,35.4027076 61.4104167,35 C61.4104167,34.5972924 61.7368757,34.2708333 62.1395833,34.2708333 L62.1395833,34.2708333 Z M7.86041667,34.2708333 C8.2631243,34.2708333 8.58958333,34.5972924 8.58958333,35 C8.58958333,35.4027076 8.2631243,35.7291667 7.86041667,35.7291667 L7.86041667,35.7291667 L4.2875,35.7291667 C3.88479237,35.7291667 3.55833333,35.4027076 3.55833333,35 C3.55833333,34.5972924 3.88479237,34.2708333 4.2875,34.2708333 L4.2875,34.2708333 Z M56.2041667,12.775 C56.4937564,12.5768453 56.883414,12.6130535 57.1315344,12.8611739 C57.3796549,13.1092943 57.4158631,13.4989519 57.2177083,13.7885417 L57.2177083,13.7885417 L54.6875,16.3114583 C54.5323016,16.5735157 54.2305745,16.7115072 53.9308328,16.6575115 C53.6310911,16.6035159 53.3964841,16.3689089 53.3424885,16.0691672 C53.2884928,15.7694255 53.4264843,15.4676984 53.6885417,15.3125 L53.6885417,15.3125 L56.2114583,12.775 Z M12.8611739,12.8611739 C13.1092943,12.6130535 13.4989519,12.5768453 13.7885417,12.775 L13.7885417,12.775 L16.3114583,15.3125 C16.4811629,15.5990513 16.4351518,15.9641713 16.1996616,16.1996616 C15.9641713,16.4351518 15.5990513,16.4811629 15.3125,16.3114583 L15.3125,16.3114583 L12.775,13.7885417 C12.5768453,13.4989519 12.6130535,13.1092943 12.8611739,12.8611739 Z M35,3.55833333 C35.4027076,3.55833333 35.7291667,3.88479237 35.7291667,4.2875 L35.7291667,4.2875 L35.7291667,7.84583333 C35.7291667,8.24854096 35.4027076,8.57500001 35,8.57500001 C34.6029194,8.57507942 34.2787749,8.2574178 34.2708333,7.86041667 L34.2708333,7.86041667 L34.2708333,4.2875 C34.2708333,3.88479237 34.5972924,3.55833333 35,3.55833333 Z" id="path-1"></path>
    </defs>
    <g id="🔒-MAIN" stroke="none" stroke-width="1" fill="none" fill-rule="evenodd">
        <g id="home-v3" transform="translate(-474.000000, -1430.000000)">
            <g id="time" transform="translate(474.000000, 1430.000000)">
                <mask id="mask-2" fill="white">
                    <use xlink:href="#path-1"></use>
                </mask>
                <use id="Mask" fill="#727272" fill-rule="nonzero" opacity="0.7" xlink:href="#path-1"></use>
            </g>
        </g>
    </g>
</svg>